<mxfile host="app.diagrams.net" agent="Mozilla/5.0 (Windows NT 10.0; Win64; x64) AppleWebKit/537.36 (KHTML, like Gecko) Chrome/133.0.0.0 Safari/537.36 Edg/133.0.0.0" version="26.0.16">
  <diagram name="Página-1" id="t-2QdboMSD2lvwBzECB3">
    <mxGraphModel dx="2329" dy="1669" grid="1" gridSize="10" guides="1" tooltips="1" connect="1" arrows="1" fold="1" page="0" pageScale="1" pageWidth="827" pageHeight="1169" math="0" shadow="0">
      <root>
        <mxCell id="0" />
        <mxCell id="1" parent="0" />
        <mxCell id="u0QW2ccfRetypEZ7X_PO-133" value="" style="edgeStyle=none;shape=connector;rounded=0;orthogonalLoop=1;jettySize=auto;html=1;strokeColor=default;align=center;verticalAlign=middle;fontFamily=Helvetica;fontSize=11;fontColor=default;labelBackgroundColor=default;startArrow=none;startFill=0;endArrow=none;" parent="1" source="u0QW2ccfRetypEZ7X_PO-1" target="u0QW2ccfRetypEZ7X_PO-132" edge="1">
          <mxGeometry relative="1" as="geometry" />
        </mxCell>
        <mxCell id="u0QW2ccfRetypEZ7X_PO-135" value="1" style="edgeLabel;html=1;align=center;verticalAlign=middle;resizable=0;points=[];fontFamily=Helvetica;fontSize=11;fontColor=default;labelBackgroundColor=default;" parent="u0QW2ccfRetypEZ7X_PO-133" vertex="1" connectable="0">
          <mxGeometry x="-0.4437" y="-1" relative="1" as="geometry">
            <mxPoint x="8" as="offset" />
          </mxGeometry>
        </mxCell>
        <mxCell id="u0QW2ccfRetypEZ7X_PO-1" value="Atleta" style="whiteSpace=wrap;html=1;align=center;fillColor=#d5e8d4;strokeColor=#82b366;" parent="1" vertex="1">
          <mxGeometry x="20" y="-170" width="100" height="40" as="geometry" />
        </mxCell>
        <mxCell id="u0QW2ccfRetypEZ7X_PO-2" value="&lt;span style=&quot;border-bottom: 1px dotted&quot;&gt;Id&lt;/span&gt;" style="ellipse;whiteSpace=wrap;html=1;align=center;fillColor=#fff2cc;strokeColor=#d6b656;" parent="1" vertex="1">
          <mxGeometry x="-80" y="-220" width="60" height="30" as="geometry" />
        </mxCell>
        <mxCell id="u0QW2ccfRetypEZ7X_PO-4" style="edgeStyle=none;shape=connector;rounded=0;orthogonalLoop=1;jettySize=auto;html=1;entryX=0;entryY=0;entryDx=0;entryDy=0;strokeColor=default;align=center;verticalAlign=middle;fontFamily=Helvetica;fontSize=11;fontColor=default;labelBackgroundColor=default;startArrow=none;startFill=0;endArrow=none;" parent="1" source="u0QW2ccfRetypEZ7X_PO-2" target="u0QW2ccfRetypEZ7X_PO-1" edge="1">
          <mxGeometry relative="1" as="geometry" />
        </mxCell>
        <mxCell id="u0QW2ccfRetypEZ7X_PO-6" value="Nome" style="ellipse;whiteSpace=wrap;html=1;align=center;" parent="1" vertex="1">
          <mxGeometry x="-6.25" y="-295" width="80" height="30" as="geometry" />
        </mxCell>
        <mxCell id="u0QW2ccfRetypEZ7X_PO-7" style="edgeStyle=none;shape=connector;rounded=0;orthogonalLoop=1;jettySize=auto;html=1;entryX=0.614;entryY=-0.025;entryDx=0;entryDy=0;entryPerimeter=0;strokeColor=default;align=center;verticalAlign=middle;fontFamily=Helvetica;fontSize=11;fontColor=default;labelBackgroundColor=default;startArrow=none;startFill=0;endArrow=none;" parent="1" source="u0QW2ccfRetypEZ7X_PO-6" target="u0QW2ccfRetypEZ7X_PO-1" edge="1">
          <mxGeometry relative="1" as="geometry" />
        </mxCell>
        <mxCell id="u0QW2ccfRetypEZ7X_PO-145" style="edgeStyle=none;shape=connector;rounded=0;orthogonalLoop=1;jettySize=auto;html=1;strokeColor=default;align=center;verticalAlign=middle;fontFamily=Helvetica;fontSize=11;fontColor=default;labelBackgroundColor=default;startArrow=none;startFill=0;endArrow=none;" parent="1" source="u0QW2ccfRetypEZ7X_PO-8" target="u0QW2ccfRetypEZ7X_PO-6" edge="1">
          <mxGeometry relative="1" as="geometry" />
        </mxCell>
        <mxCell id="u0QW2ccfRetypEZ7X_PO-8" value="Nome" style="ellipse;whiteSpace=wrap;html=1;align=center;" parent="1" vertex="1">
          <mxGeometry x="-113.75" y="-345" width="80" height="30" as="geometry" />
        </mxCell>
        <mxCell id="u0QW2ccfRetypEZ7X_PO-9" value="Sobrenome" style="ellipse;whiteSpace=wrap;html=1;align=center;" parent="1" vertex="1">
          <mxGeometry x="-80" y="-380" width="80" height="30" as="geometry" />
        </mxCell>
        <mxCell id="u0QW2ccfRetypEZ7X_PO-10" style="edgeStyle=none;shape=connector;rounded=0;orthogonalLoop=1;jettySize=auto;html=1;strokeColor=default;align=center;verticalAlign=middle;fontFamily=Helvetica;fontSize=11;fontColor=default;labelBackgroundColor=default;startArrow=none;startFill=0;endArrow=none;entryX=0.274;entryY=0.019;entryDx=0;entryDy=0;entryPerimeter=0;" parent="1" source="u0QW2ccfRetypEZ7X_PO-9" target="u0QW2ccfRetypEZ7X_PO-6" edge="1">
          <mxGeometry relative="1" as="geometry">
            <mxPoint x="-10" y="-301" as="targetPoint" />
          </mxGeometry>
        </mxCell>
        <mxCell id="u0QW2ccfRetypEZ7X_PO-12" value="Nacionalidade" style="ellipse;whiteSpace=wrap;html=1;align=center;" parent="1" vertex="1">
          <mxGeometry x="165" y="-315" width="100" height="40" as="geometry" />
        </mxCell>
        <mxCell id="u0QW2ccfRetypEZ7X_PO-13" style="edgeStyle=none;shape=connector;rounded=0;orthogonalLoop=1;jettySize=auto;html=1;entryX=0.902;entryY=-0.045;entryDx=0;entryDy=0;entryPerimeter=0;strokeColor=default;align=center;verticalAlign=middle;fontFamily=Helvetica;fontSize=11;fontColor=default;labelBackgroundColor=default;startArrow=none;startFill=0;endArrow=none;" parent="1" source="u0QW2ccfRetypEZ7X_PO-12" target="u0QW2ccfRetypEZ7X_PO-1" edge="1">
          <mxGeometry relative="1" as="geometry" />
        </mxCell>
        <mxCell id="u0QW2ccfRetypEZ7X_PO-15" style="edgeStyle=none;shape=connector;rounded=0;orthogonalLoop=1;jettySize=auto;html=1;entryX=0.75;entryY=0;entryDx=0;entryDy=0;strokeColor=default;align=center;verticalAlign=middle;fontFamily=Helvetica;fontSize=11;fontColor=default;labelBackgroundColor=default;startArrow=none;startFill=0;endArrow=none;" parent="1" source="u0QW2ccfRetypEZ7X_PO-14" target="u0QW2ccfRetypEZ7X_PO-1" edge="1">
          <mxGeometry relative="1" as="geometry" />
        </mxCell>
        <mxCell id="u0QW2ccfRetypEZ7X_PO-14" value="Data de&lt;div&gt;Nascimento&lt;/div&gt;" style="ellipse;whiteSpace=wrap;html=1;align=center;" parent="1" vertex="1">
          <mxGeometry x="90" y="-290" width="85" height="45" as="geometry" />
        </mxCell>
        <mxCell id="u0QW2ccfRetypEZ7X_PO-17" style="edgeStyle=none;shape=connector;rounded=0;orthogonalLoop=1;jettySize=auto;html=1;entryX=1;entryY=0.25;entryDx=0;entryDy=0;strokeColor=default;align=center;verticalAlign=middle;fontFamily=Helvetica;fontSize=11;fontColor=default;labelBackgroundColor=default;startArrow=none;startFill=0;endArrow=none;" parent="1" source="u0QW2ccfRetypEZ7X_PO-16" target="u0QW2ccfRetypEZ7X_PO-1" edge="1">
          <mxGeometry relative="1" as="geometry" />
        </mxCell>
        <mxCell id="u0QW2ccfRetypEZ7X_PO-16" value="Sexo" style="ellipse;whiteSpace=wrap;html=1;align=center;" parent="1" vertex="1">
          <mxGeometry x="170" y="-240" width="90" height="30" as="geometry" />
        </mxCell>
        <mxCell id="u0QW2ccfRetypEZ7X_PO-28" value="" style="edgeStyle=none;shape=connector;rounded=0;orthogonalLoop=1;jettySize=auto;html=1;strokeColor=default;align=center;verticalAlign=middle;fontFamily=Helvetica;fontSize=11;fontColor=default;labelBackgroundColor=default;startArrow=none;startFill=0;endArrow=none;" parent="1" source="u0QW2ccfRetypEZ7X_PO-18" target="u0QW2ccfRetypEZ7X_PO-27" edge="1">
          <mxGeometry relative="1" as="geometry" />
        </mxCell>
        <mxCell id="u0QW2ccfRetypEZ7X_PO-30" value="1" style="edgeLabel;html=1;align=center;verticalAlign=middle;resizable=0;points=[];fontFamily=Helvetica;fontSize=11;fontColor=default;labelBackgroundColor=default;" parent="u0QW2ccfRetypEZ7X_PO-28" vertex="1" connectable="0">
          <mxGeometry x="-0.7111" y="-2" relative="1" as="geometry">
            <mxPoint y="-11" as="offset" />
          </mxGeometry>
        </mxCell>
        <mxCell id="u0QW2ccfRetypEZ7X_PO-18" value="Endereço" style="whiteSpace=wrap;html=1;align=center;fillColor=#d5e8d4;strokeColor=#82b366;" parent="1" vertex="1">
          <mxGeometry x="-330" y="-170" width="100" height="40" as="geometry" />
        </mxCell>
        <mxCell id="u0QW2ccfRetypEZ7X_PO-20" style="edgeStyle=none;shape=connector;rounded=0;orthogonalLoop=1;jettySize=auto;html=1;entryX=0;entryY=0;entryDx=0;entryDy=0;strokeColor=default;align=center;verticalAlign=middle;fontFamily=Helvetica;fontSize=11;fontColor=default;labelBackgroundColor=default;startArrow=none;startFill=0;endArrow=none;" parent="1" source="u0QW2ccfRetypEZ7X_PO-19" target="u0QW2ccfRetypEZ7X_PO-18" edge="1">
          <mxGeometry relative="1" as="geometry" />
        </mxCell>
        <mxCell id="u0QW2ccfRetypEZ7X_PO-19" value="&lt;span style=&quot;border-bottom: 1px dotted&quot;&gt;Id&lt;/span&gt;" style="ellipse;whiteSpace=wrap;html=1;align=center;fillColor=#fff2cc;strokeColor=#d6b656;" parent="1" vertex="1">
          <mxGeometry x="-395" y="-230" width="60" height="25" as="geometry" />
        </mxCell>
        <mxCell id="u0QW2ccfRetypEZ7X_PO-21" value="CEP" style="ellipse;whiteSpace=wrap;html=1;align=center;" parent="1" vertex="1">
          <mxGeometry x="-395" y="-295" width="80" height="30" as="geometry" />
        </mxCell>
        <mxCell id="u0QW2ccfRetypEZ7X_PO-22" style="edgeStyle=none;shape=connector;rounded=0;orthogonalLoop=1;jettySize=auto;html=1;entryX=0.25;entryY=0;entryDx=0;entryDy=0;strokeColor=default;align=center;verticalAlign=middle;fontFamily=Helvetica;fontSize=11;fontColor=default;labelBackgroundColor=default;startArrow=none;startFill=0;endArrow=none;" parent="1" source="u0QW2ccfRetypEZ7X_PO-21" target="u0QW2ccfRetypEZ7X_PO-18" edge="1">
          <mxGeometry relative="1" as="geometry" />
        </mxCell>
        <mxCell id="u0QW2ccfRetypEZ7X_PO-23" value="Numero" style="ellipse;whiteSpace=wrap;html=1;align=center;" parent="1" vertex="1">
          <mxGeometry x="-320" y="-260" width="80" height="40" as="geometry" />
        </mxCell>
        <mxCell id="u0QW2ccfRetypEZ7X_PO-24" style="edgeStyle=none;shape=connector;rounded=0;orthogonalLoop=1;jettySize=auto;html=1;entryX=0.442;entryY=-0.023;entryDx=0;entryDy=0;entryPerimeter=0;strokeColor=default;align=center;verticalAlign=middle;fontFamily=Helvetica;fontSize=11;fontColor=default;labelBackgroundColor=default;startArrow=none;startFill=0;endArrow=none;" parent="1" source="u0QW2ccfRetypEZ7X_PO-23" target="u0QW2ccfRetypEZ7X_PO-18" edge="1">
          <mxGeometry relative="1" as="geometry" />
        </mxCell>
        <mxCell id="u0QW2ccfRetypEZ7X_PO-26" style="edgeStyle=none;shape=connector;rounded=0;orthogonalLoop=1;jettySize=auto;html=1;entryX=0.75;entryY=0;entryDx=0;entryDy=0;strokeColor=default;align=center;verticalAlign=middle;fontFamily=Helvetica;fontSize=11;fontColor=default;labelBackgroundColor=default;startArrow=none;startFill=0;endArrow=none;" parent="1" source="u0QW2ccfRetypEZ7X_PO-25" target="u0QW2ccfRetypEZ7X_PO-18" edge="1">
          <mxGeometry relative="1" as="geometry" />
        </mxCell>
        <mxCell id="u0QW2ccfRetypEZ7X_PO-25" value="Complemento" style="ellipse;whiteSpace=wrap;html=1;align=center;" parent="1" vertex="1">
          <mxGeometry x="-250" y="-310" width="100" height="40" as="geometry" />
        </mxCell>
        <mxCell id="u0QW2ccfRetypEZ7X_PO-29" style="edgeStyle=none;shape=connector;rounded=0;orthogonalLoop=1;jettySize=auto;html=1;entryX=0;entryY=0.5;entryDx=0;entryDy=0;strokeColor=default;align=center;verticalAlign=middle;fontFamily=Helvetica;fontSize=11;fontColor=default;labelBackgroundColor=default;startArrow=none;startFill=0;endArrow=none;" parent="1" source="u0QW2ccfRetypEZ7X_PO-27" target="u0QW2ccfRetypEZ7X_PO-1" edge="1">
          <mxGeometry relative="1" as="geometry" />
        </mxCell>
        <mxCell id="u0QW2ccfRetypEZ7X_PO-31" value="N" style="edgeLabel;html=1;align=center;verticalAlign=middle;resizable=0;points=[];fontFamily=Helvetica;fontSize=11;fontColor=default;labelBackgroundColor=default;" parent="u0QW2ccfRetypEZ7X_PO-29" vertex="1" connectable="0">
          <mxGeometry x="0.475" y="-2" relative="1" as="geometry">
            <mxPoint y="-11" as="offset" />
          </mxGeometry>
        </mxCell>
        <mxCell id="u0QW2ccfRetypEZ7X_PO-27" value="Mora em" style="rhombus;whiteSpace=wrap;html=1;fillColor=#e1d5e7;strokeColor=#9673a6;" parent="1" vertex="1">
          <mxGeometry x="-140" y="-190" width="80" height="80" as="geometry" />
        </mxCell>
        <mxCell id="u0QW2ccfRetypEZ7X_PO-34" style="edgeStyle=none;shape=connector;rounded=0;orthogonalLoop=1;jettySize=auto;html=1;entryX=0.5;entryY=0;entryDx=0;entryDy=0;strokeColor=default;align=center;verticalAlign=middle;fontFamily=Helvetica;fontSize=11;fontColor=default;labelBackgroundColor=default;startArrow=none;startFill=0;endArrow=none;" parent="1" source="u0QW2ccfRetypEZ7X_PO-32" target="u0QW2ccfRetypEZ7X_PO-1" edge="1">
          <mxGeometry relative="1" as="geometry" />
        </mxCell>
        <mxCell id="u0QW2ccfRetypEZ7X_PO-32" value="Email" style="ellipse;whiteSpace=wrap;html=1;align=center;" parent="1" vertex="1">
          <mxGeometry x="-20" y="-250" width="70" height="30" as="geometry" />
        </mxCell>
        <mxCell id="u0QW2ccfRetypEZ7X_PO-33" value="Telefone" style="ellipse;whiteSpace=wrap;html=1;align=center;" parent="1" vertex="1">
          <mxGeometry x="-105" y="-273.75" width="80" height="30" as="geometry" />
        </mxCell>
        <mxCell id="u0QW2ccfRetypEZ7X_PO-35" style="edgeStyle=none;shape=connector;rounded=0;orthogonalLoop=1;jettySize=auto;html=1;entryX=0.326;entryY=-0.033;entryDx=0;entryDy=0;entryPerimeter=0;strokeColor=default;align=center;verticalAlign=middle;fontFamily=Helvetica;fontSize=11;fontColor=default;labelBackgroundColor=default;startArrow=none;startFill=0;endArrow=none;" parent="1" source="u0QW2ccfRetypEZ7X_PO-33" target="u0QW2ccfRetypEZ7X_PO-1" edge="1">
          <mxGeometry relative="1" as="geometry" />
        </mxCell>
        <mxCell id="u0QW2ccfRetypEZ7X_PO-37" style="edgeStyle=none;shape=connector;rounded=0;orthogonalLoop=1;jettySize=auto;html=1;entryX=1;entryY=0.5;entryDx=0;entryDy=0;strokeColor=default;align=center;verticalAlign=middle;fontFamily=Helvetica;fontSize=11;fontColor=default;labelBackgroundColor=default;startArrow=none;startFill=0;endArrow=none;" parent="1" source="u0QW2ccfRetypEZ7X_PO-36" target="u0QW2ccfRetypEZ7X_PO-1" edge="1">
          <mxGeometry relative="1" as="geometry" />
        </mxCell>
        <mxCell id="u0QW2ccfRetypEZ7X_PO-36" value="Assinatura" style="ellipse;whiteSpace=wrap;html=1;align=center;" parent="1" vertex="1">
          <mxGeometry x="180" y="-200" width="90" height="30" as="geometry" />
        </mxCell>
        <mxCell id="u0QW2ccfRetypEZ7X_PO-38" value="Oficial de Controle&lt;div&gt;de Dopagem&lt;/div&gt;" style="whiteSpace=wrap;html=1;align=center;fillColor=#d5e8d4;strokeColor=#82b366;" parent="1" vertex="1">
          <mxGeometry x="812.5" y="30" width="120" height="50" as="geometry" />
        </mxCell>
        <mxCell id="u0QW2ccfRetypEZ7X_PO-44" style="edgeStyle=none;shape=connector;rounded=0;orthogonalLoop=1;jettySize=auto;html=1;entryX=0.5;entryY=0;entryDx=0;entryDy=0;strokeColor=default;align=center;verticalAlign=middle;fontFamily=Helvetica;fontSize=11;fontColor=default;labelBackgroundColor=default;startArrow=none;startFill=0;endArrow=none;" parent="1" source="u0QW2ccfRetypEZ7X_PO-39" target="u0QW2ccfRetypEZ7X_PO-38" edge="1">
          <mxGeometry relative="1" as="geometry" />
        </mxCell>
        <mxCell id="u0QW2ccfRetypEZ7X_PO-39" value="Nome" style="ellipse;whiteSpace=wrap;html=1;align=center;" parent="1" vertex="1">
          <mxGeometry x="822.5" y="-40" width="80" height="30" as="geometry" />
        </mxCell>
        <mxCell id="u0QW2ccfRetypEZ7X_PO-40" style="edgeStyle=none;shape=connector;rounded=0;orthogonalLoop=1;jettySize=auto;html=1;entryX=0.5;entryY=0;entryDx=0;entryDy=0;strokeColor=default;align=center;verticalAlign=middle;fontFamily=Helvetica;fontSize=11;fontColor=default;labelBackgroundColor=default;startArrow=none;startFill=0;endArrow=none;" parent="1" source="u0QW2ccfRetypEZ7X_PO-41" target="u0QW2ccfRetypEZ7X_PO-39" edge="1">
          <mxGeometry relative="1" as="geometry" />
        </mxCell>
        <mxCell id="u0QW2ccfRetypEZ7X_PO-41" value="Nome" style="ellipse;whiteSpace=wrap;html=1;align=center;" parent="1" vertex="1">
          <mxGeometry x="787.5" y="-110" width="80" height="30" as="geometry" />
        </mxCell>
        <mxCell id="u0QW2ccfRetypEZ7X_PO-42" value="Sobrenome" style="ellipse;whiteSpace=wrap;html=1;align=center;" parent="1" vertex="1">
          <mxGeometry x="867.5" y="-95" width="80" height="30" as="geometry" />
        </mxCell>
        <mxCell id="u0QW2ccfRetypEZ7X_PO-43" style="edgeStyle=none;shape=connector;rounded=0;orthogonalLoop=1;jettySize=auto;html=1;entryX=0.67;entryY=-0.025;entryDx=0;entryDy=0;entryPerimeter=0;strokeColor=default;align=center;verticalAlign=middle;fontFamily=Helvetica;fontSize=11;fontColor=default;labelBackgroundColor=default;startArrow=none;startFill=0;endArrow=none;" parent="1" source="u0QW2ccfRetypEZ7X_PO-42" target="u0QW2ccfRetypEZ7X_PO-39" edge="1">
          <mxGeometry relative="1" as="geometry" />
        </mxCell>
        <mxCell id="u0QW2ccfRetypEZ7X_PO-45" value="Assinatura" style="ellipse;whiteSpace=wrap;html=1;align=center;" parent="1" vertex="1">
          <mxGeometry x="912.5" y="-50" width="90" height="30" as="geometry" />
        </mxCell>
        <mxCell id="u0QW2ccfRetypEZ7X_PO-46" style="edgeStyle=none;shape=connector;rounded=0;orthogonalLoop=1;jettySize=auto;html=1;entryX=0.75;entryY=0;entryDx=0;entryDy=0;strokeColor=default;align=center;verticalAlign=middle;fontFamily=Helvetica;fontSize=11;fontColor=default;labelBackgroundColor=default;startArrow=none;startFill=0;endArrow=none;" parent="1" source="u0QW2ccfRetypEZ7X_PO-45" target="u0QW2ccfRetypEZ7X_PO-38" edge="1">
          <mxGeometry relative="1" as="geometry" />
        </mxCell>
        <mxCell id="u0QW2ccfRetypEZ7X_PO-115" value="" style="edgeStyle=none;shape=connector;rounded=0;orthogonalLoop=1;jettySize=auto;html=1;strokeColor=default;align=center;verticalAlign=middle;fontFamily=Helvetica;fontSize=11;fontColor=default;labelBackgroundColor=default;startArrow=none;startFill=0;endArrow=none;" parent="1" source="u0QW2ccfRetypEZ7X_PO-47" target="u0QW2ccfRetypEZ7X_PO-114" edge="1">
          <mxGeometry relative="1" as="geometry" />
        </mxCell>
        <mxCell id="u0QW2ccfRetypEZ7X_PO-117" value="N" style="edgeLabel;html=1;align=center;verticalAlign=middle;resizable=0;points=[];fontFamily=Helvetica;fontSize=11;fontColor=default;labelBackgroundColor=default;" parent="u0QW2ccfRetypEZ7X_PO-115" vertex="1" connectable="0">
          <mxGeometry x="-0.661" y="-1" relative="1" as="geometry">
            <mxPoint x="-10" as="offset" />
          </mxGeometry>
        </mxCell>
        <mxCell id="u0QW2ccfRetypEZ7X_PO-128" value="" style="edgeStyle=none;shape=connector;rounded=0;orthogonalLoop=1;jettySize=auto;html=1;strokeColor=default;align=center;verticalAlign=middle;fontFamily=Helvetica;fontSize=11;fontColor=default;labelBackgroundColor=default;startArrow=none;startFill=0;endArrow=none;" parent="1" source="u0QW2ccfRetypEZ7X_PO-47" target="u0QW2ccfRetypEZ7X_PO-127" edge="1">
          <mxGeometry relative="1" as="geometry" />
        </mxCell>
        <mxCell id="u0QW2ccfRetypEZ7X_PO-131" value="N" style="edgeLabel;html=1;align=center;verticalAlign=middle;resizable=0;points=[];fontFamily=Helvetica;fontSize=11;fontColor=default;labelBackgroundColor=default;" parent="u0QW2ccfRetypEZ7X_PO-128" vertex="1" connectable="0">
          <mxGeometry x="-0.5254" relative="1" as="geometry">
            <mxPoint y="-10" as="offset" />
          </mxGeometry>
        </mxCell>
        <mxCell id="u0QW2ccfRetypEZ7X_PO-47" value="Amostra" style="whiteSpace=wrap;html=1;align=center;fillColor=#d5e8d4;strokeColor=#82b366;" parent="1" vertex="1">
          <mxGeometry x="527.5" y="-170" width="100" height="40" as="geometry" />
        </mxCell>
        <mxCell id="u0QW2ccfRetypEZ7X_PO-49" style="edgeStyle=none;shape=connector;rounded=0;orthogonalLoop=1;jettySize=auto;html=1;entryX=0.25;entryY=0;entryDx=0;entryDy=0;strokeColor=default;align=center;verticalAlign=middle;fontFamily=Helvetica;fontSize=11;fontColor=default;labelBackgroundColor=default;startArrow=none;startFill=0;endArrow=none;" parent="1" source="u0QW2ccfRetypEZ7X_PO-48" target="u0QW2ccfRetypEZ7X_PO-38" edge="1">
          <mxGeometry relative="1" as="geometry" />
        </mxCell>
        <mxCell id="u0QW2ccfRetypEZ7X_PO-48" value="&lt;span style=&quot;border-bottom: 1px dotted&quot;&gt;Id&lt;/span&gt;" style="ellipse;whiteSpace=wrap;html=1;align=center;fillColor=#fff2cc;strokeColor=#d6b656;" parent="1" vertex="1">
          <mxGeometry x="752.5" y="-20" width="60" height="30" as="geometry" />
        </mxCell>
        <mxCell id="u0QW2ccfRetypEZ7X_PO-52" value="Data Hora da&lt;div&gt;Coleta&lt;/div&gt;" style="ellipse;whiteSpace=wrap;html=1;align=center;" parent="1" vertex="1">
          <mxGeometry x="454" y="-580" width="90" height="40" as="geometry" />
        </mxCell>
        <mxCell id="u0QW2ccfRetypEZ7X_PO-55" style="edgeStyle=none;shape=connector;rounded=0;orthogonalLoop=1;jettySize=auto;html=1;entryX=0.87;entryY=-0.001;entryDx=0;entryDy=0;strokeColor=default;align=center;verticalAlign=middle;fontFamily=Helvetica;fontSize=11;fontColor=default;labelBackgroundColor=default;startArrow=none;startFill=0;endArrow=none;entryPerimeter=0;" parent="1" source="u0QW2ccfRetypEZ7X_PO-54" target="u0QW2ccfRetypEZ7X_PO-47" edge="1">
          <mxGeometry relative="1" as="geometry" />
        </mxCell>
        <mxCell id="u0QW2ccfRetypEZ7X_PO-54" value="Numero da&lt;div&gt;Amostra Parcial&lt;/div&gt;" style="ellipse;whiteSpace=wrap;html=1;align=center;" parent="1" vertex="1">
          <mxGeometry x="637.5" y="-288.75" width="120" height="50" as="geometry" />
        </mxCell>
        <mxCell id="u0QW2ccfRetypEZ7X_PO-57" style="edgeStyle=none;shape=connector;rounded=0;orthogonalLoop=1;jettySize=auto;html=1;entryX=0.25;entryY=0;entryDx=0;entryDy=0;strokeColor=default;align=center;verticalAlign=middle;fontFamily=Helvetica;fontSize=11;fontColor=default;labelBackgroundColor=default;startArrow=none;startFill=0;endArrow=none;" parent="1" source="u0QW2ccfRetypEZ7X_PO-56" target="u0QW2ccfRetypEZ7X_PO-47" edge="1">
          <mxGeometry relative="1" as="geometry" />
        </mxCell>
        <mxCell id="u0QW2ccfRetypEZ7X_PO-56" value="Hora da&lt;div&gt;Selagem&lt;/div&gt;" style="ellipse;whiteSpace=wrap;html=1;align=center;" parent="1" vertex="1">
          <mxGeometry x="490" y="-295" width="90" height="40" as="geometry" />
        </mxCell>
        <mxCell id="u0QW2ccfRetypEZ7X_PO-59" style="edgeStyle=none;shape=connector;rounded=0;orthogonalLoop=1;jettySize=auto;html=1;entryX=0.133;entryY=0.016;entryDx=0;entryDy=0;strokeColor=default;align=center;verticalAlign=middle;fontFamily=Helvetica;fontSize=11;fontColor=default;labelBackgroundColor=default;startArrow=none;startFill=0;endArrow=none;entryPerimeter=0;" parent="1" source="u0QW2ccfRetypEZ7X_PO-58" target="u0QW2ccfRetypEZ7X_PO-47" edge="1">
          <mxGeometry relative="1" as="geometry" />
        </mxCell>
        <mxCell id="u0QW2ccfRetypEZ7X_PO-58" value="Iniciais do&amp;nbsp;&lt;div&gt;Atleta&lt;/div&gt;" style="ellipse;whiteSpace=wrap;html=1;align=center;" parent="1" vertex="1">
          <mxGeometry x="390" y="-355" width="100" height="50" as="geometry" />
        </mxCell>
        <mxCell id="u0QW2ccfRetypEZ7X_PO-61" style="edgeStyle=none;shape=connector;rounded=0;orthogonalLoop=1;jettySize=auto;html=1;entryX=0;entryY=0;entryDx=0;entryDy=0;strokeColor=default;align=center;verticalAlign=middle;fontFamily=Helvetica;fontSize=11;fontColor=default;labelBackgroundColor=default;startArrow=none;startFill=0;endArrow=none;" parent="1" source="u0QW2ccfRetypEZ7X_PO-60" target="u0QW2ccfRetypEZ7X_PO-47" edge="1">
          <mxGeometry relative="1" as="geometry" />
        </mxCell>
        <mxCell id="u0QW2ccfRetypEZ7X_PO-60" value="Numero do&amp;nbsp;&lt;div&gt;Código da Amostra&lt;/div&gt;" style="ellipse;whiteSpace=wrap;html=1;align=center;" parent="1" vertex="1">
          <mxGeometry x="320" y="-295" width="140" height="62.5" as="geometry" />
        </mxCell>
        <mxCell id="u0QW2ccfRetypEZ7X_PO-156" style="edgeStyle=none;shape=connector;rounded=0;orthogonalLoop=1;jettySize=auto;html=1;entryX=1;entryY=0;entryDx=0;entryDy=0;strokeColor=default;align=center;verticalAlign=middle;fontFamily=Helvetica;fontSize=11;fontColor=default;labelBackgroundColor=default;startArrow=none;startFill=0;endArrow=none;" parent="1" source="u0QW2ccfRetypEZ7X_PO-62" target="u0QW2ccfRetypEZ7X_PO-151" edge="1">
          <mxGeometry relative="1" as="geometry" />
        </mxCell>
        <mxCell id="u0QW2ccfRetypEZ7X_PO-62" value="Densidade" style="ellipse;whiteSpace=wrap;html=1;align=center;" parent="1" vertex="1">
          <mxGeometry x="660" y="-550" width="82.5" height="50" as="geometry" />
        </mxCell>
        <mxCell id="u0QW2ccfRetypEZ7X_PO-66" style="edgeStyle=none;shape=connector;rounded=0;orthogonalLoop=1;jettySize=auto;html=1;entryX=0;entryY=0;entryDx=0;entryDy=0;strokeColor=default;align=center;verticalAlign=middle;fontFamily=Helvetica;fontSize=11;fontColor=default;labelBackgroundColor=default;startArrow=none;startFill=0;endArrow=none;" parent="1" source="u0QW2ccfRetypEZ7X_PO-65" target="u0QW2ccfRetypEZ7X_PO-47" edge="1">
          <mxGeometry relative="1" as="geometry" />
        </mxCell>
        <mxCell id="u0QW2ccfRetypEZ7X_PO-65" value="&lt;span style=&quot;border-bottom: 1px dotted&quot;&gt;Id&lt;/span&gt;" style="ellipse;whiteSpace=wrap;html=1;align=center;fillColor=#fff2cc;strokeColor=#d6b656;" parent="1" vertex="1">
          <mxGeometry x="400" y="-210" width="60" height="30" as="geometry" />
        </mxCell>
        <mxCell id="u0QW2ccfRetypEZ7X_PO-138" value="" style="edgeStyle=none;shape=connector;rounded=0;orthogonalLoop=1;jettySize=auto;html=1;strokeColor=default;align=center;verticalAlign=middle;fontFamily=Helvetica;fontSize=11;fontColor=default;labelBackgroundColor=default;startArrow=none;startFill=0;endArrow=none;" parent="1" source="u0QW2ccfRetypEZ7X_PO-73" target="u0QW2ccfRetypEZ7X_PO-137" edge="1">
          <mxGeometry relative="1" as="geometry" />
        </mxCell>
        <mxCell id="u0QW2ccfRetypEZ7X_PO-147" value="N" style="edgeLabel;html=1;align=center;verticalAlign=middle;resizable=0;points=[];fontFamily=Helvetica;fontSize=11;fontColor=default;labelBackgroundColor=default;" parent="u0QW2ccfRetypEZ7X_PO-138" vertex="1" connectable="0">
          <mxGeometry x="-0.6827" relative="1" as="geometry">
            <mxPoint x="7" y="4" as="offset" />
          </mxGeometry>
        </mxCell>
        <mxCell id="u0QW2ccfRetypEZ7X_PO-73" value="Teste" style="whiteSpace=wrap;html=1;align=center;fillColor=#d5e8d4;strokeColor=#82b366;" parent="1" vertex="1">
          <mxGeometry x="22.5" y="100" width="100" height="40" as="geometry" />
        </mxCell>
        <mxCell id="u0QW2ccfRetypEZ7X_PO-75" style="edgeStyle=none;shape=connector;rounded=0;orthogonalLoop=1;jettySize=auto;html=1;entryX=0;entryY=0;entryDx=0;entryDy=0;strokeColor=default;align=center;verticalAlign=middle;fontFamily=Helvetica;fontSize=11;fontColor=default;labelBackgroundColor=default;startArrow=none;startFill=0;endArrow=none;" parent="1" source="u0QW2ccfRetypEZ7X_PO-74" target="u0QW2ccfRetypEZ7X_PO-73" edge="1">
          <mxGeometry relative="1" as="geometry" />
        </mxCell>
        <mxCell id="u0QW2ccfRetypEZ7X_PO-74" value="&lt;span style=&quot;border-bottom: 1px dotted&quot;&gt;Id&lt;/span&gt;" style="ellipse;whiteSpace=wrap;html=1;align=center;fillColor=#fff2cc;strokeColor=#d6b656;" parent="1" vertex="1">
          <mxGeometry x="-95" y="70" width="60" height="30" as="geometry" />
        </mxCell>
        <mxCell id="u0QW2ccfRetypEZ7X_PO-77" style="edgeStyle=none;shape=connector;rounded=0;orthogonalLoop=1;jettySize=auto;html=1;entryX=0.081;entryY=-0.038;entryDx=0;entryDy=0;strokeColor=default;align=center;verticalAlign=middle;fontFamily=Helvetica;fontSize=11;fontColor=default;labelBackgroundColor=default;startArrow=none;startFill=0;endArrow=none;entryPerimeter=0;" parent="1" source="u0QW2ccfRetypEZ7X_PO-76" target="u0QW2ccfRetypEZ7X_PO-73" edge="1">
          <mxGeometry relative="1" as="geometry" />
        </mxCell>
        <mxCell id="u0QW2ccfRetypEZ7X_PO-76" value="Código da&lt;div&gt;Ordem de Teste&lt;/div&gt;" style="ellipse;whiteSpace=wrap;html=1;align=center;" parent="1" vertex="1">
          <mxGeometry x="-153.75" y="-11.25" width="107.5" height="47.5" as="geometry" />
        </mxCell>
        <mxCell id="u0QW2ccfRetypEZ7X_PO-79" style="edgeStyle=none;shape=connector;rounded=0;orthogonalLoop=1;jettySize=auto;html=1;entryX=0.417;entryY=-0.019;entryDx=0;entryDy=0;strokeColor=default;align=center;verticalAlign=middle;fontFamily=Helvetica;fontSize=11;fontColor=default;labelBackgroundColor=default;startArrow=none;startFill=0;endArrow=none;entryPerimeter=0;" parent="1" source="u0QW2ccfRetypEZ7X_PO-78" target="u0QW2ccfRetypEZ7X_PO-73" edge="1">
          <mxGeometry relative="1" as="geometry" />
        </mxCell>
        <mxCell id="u0QW2ccfRetypEZ7X_PO-78" value="Em Competição" style="ellipse;whiteSpace=wrap;html=1;align=center;fillColor=#f8cecc;strokeColor=#b85450;" parent="1" vertex="1">
          <mxGeometry x="-35" y="10" width="97.5" height="37.5" as="geometry" />
        </mxCell>
        <mxCell id="u0QW2ccfRetypEZ7X_PO-81" style="edgeStyle=none;shape=connector;rounded=0;orthogonalLoop=1;jettySize=auto;html=1;entryX=0.9;entryY=0;entryDx=0;entryDy=0;strokeColor=default;align=center;verticalAlign=middle;fontFamily=Helvetica;fontSize=11;fontColor=default;labelBackgroundColor=default;startArrow=none;startFill=0;endArrow=none;entryPerimeter=0;" parent="1" source="u0QW2ccfRetypEZ7X_PO-80" target="u0QW2ccfRetypEZ7X_PO-73" edge="1">
          <mxGeometry relative="1" as="geometry" />
        </mxCell>
        <mxCell id="u0QW2ccfRetypEZ7X_PO-80" value="Fora de&lt;div&gt;Competição&lt;/div&gt;" style="ellipse;whiteSpace=wrap;html=1;align=center;fillColor=#f8cecc;strokeColor=#b85450;" parent="1" vertex="1">
          <mxGeometry x="190" y="-27.5" width="102.5" height="37.5" as="geometry" />
        </mxCell>
        <mxCell id="u0QW2ccfRetypEZ7X_PO-84" style="edgeStyle=none;shape=connector;rounded=0;orthogonalLoop=1;jettySize=auto;html=1;entryX=1;entryY=0;entryDx=0;entryDy=0;strokeColor=default;align=center;verticalAlign=middle;fontFamily=Helvetica;fontSize=11;fontColor=default;labelBackgroundColor=default;startArrow=none;startFill=0;endArrow=none;" parent="1" source="u0QW2ccfRetypEZ7X_PO-82" target="u0QW2ccfRetypEZ7X_PO-73" edge="1">
          <mxGeometry relative="1" as="geometry" />
        </mxCell>
        <mxCell id="u0QW2ccfRetypEZ7X_PO-82" value="Esporte" style="ellipse;whiteSpace=wrap;html=1;align=center;" parent="1" vertex="1">
          <mxGeometry x="175" y="42.5" width="102.5" height="37.5" as="geometry" />
        </mxCell>
        <mxCell id="u0QW2ccfRetypEZ7X_PO-85" style="edgeStyle=none;shape=connector;rounded=0;orthogonalLoop=1;jettySize=auto;html=1;entryX=1;entryY=0.25;entryDx=0;entryDy=0;strokeColor=default;align=center;verticalAlign=middle;fontFamily=Helvetica;fontSize=11;fontColor=default;labelBackgroundColor=default;startArrow=none;startFill=0;endArrow=none;" parent="1" source="u0QW2ccfRetypEZ7X_PO-83" target="u0QW2ccfRetypEZ7X_PO-73" edge="1">
          <mxGeometry relative="1" as="geometry" />
        </mxCell>
        <mxCell id="u0QW2ccfRetypEZ7X_PO-83" value="Diciplina" style="ellipse;whiteSpace=wrap;html=1;align=center;" parent="1" vertex="1">
          <mxGeometry x="167.5" y="100" width="102.5" height="37.5" as="geometry" />
        </mxCell>
        <mxCell id="u0QW2ccfRetypEZ7X_PO-86" value="Autoridades" style="whiteSpace=wrap;html=1;align=center;fillColor=#d5e8d4;strokeColor=#82b366;" parent="1" vertex="1">
          <mxGeometry x="22.5" y="360" width="100" height="40" as="geometry" />
        </mxCell>
        <mxCell id="u0QW2ccfRetypEZ7X_PO-87" value="Autoridade de Teste" style="ellipse;whiteSpace=wrap;html=1;align=center;" parent="1" vertex="1">
          <mxGeometry x="-127.5" y="280" width="107.5" height="47.5" as="geometry" />
        </mxCell>
        <mxCell id="u0QW2ccfRetypEZ7X_PO-92" style="edgeStyle=none;shape=connector;rounded=0;orthogonalLoop=1;jettySize=auto;html=1;entryX=0.39;entryY=-0.036;entryDx=0;entryDy=0;strokeColor=default;align=center;verticalAlign=middle;fontFamily=Helvetica;fontSize=11;fontColor=default;labelBackgroundColor=default;startArrow=none;startFill=0;endArrow=none;entryPerimeter=0;" parent="1" source="u0QW2ccfRetypEZ7X_PO-88" target="u0QW2ccfRetypEZ7X_PO-86" edge="1">
          <mxGeometry relative="1" as="geometry" />
        </mxCell>
        <mxCell id="u0QW2ccfRetypEZ7X_PO-88" value="Autoridade de Coleta de Amostra" style="ellipse;whiteSpace=wrap;html=1;align=center;" parent="1" vertex="1">
          <mxGeometry x="-142.5" y="200" width="147.5" height="62.5" as="geometry" />
        </mxCell>
        <mxCell id="u0QW2ccfRetypEZ7X_PO-89" value="Autoridade de Gestão de Resultados" style="ellipse;whiteSpace=wrap;html=1;align=center;" parent="1" vertex="1">
          <mxGeometry x="122.5" y="240" width="147.5" height="70" as="geometry" />
        </mxCell>
        <mxCell id="u0QW2ccfRetypEZ7X_PO-94" style="edgeStyle=none;shape=connector;rounded=0;orthogonalLoop=1;jettySize=auto;html=1;entryX=1;entryY=0.25;entryDx=0;entryDy=0;strokeColor=default;align=center;verticalAlign=middle;fontFamily=Helvetica;fontSize=11;fontColor=default;labelBackgroundColor=default;startArrow=none;startFill=0;endArrow=none;" parent="1" source="u0QW2ccfRetypEZ7X_PO-90" target="u0QW2ccfRetypEZ7X_PO-86" edge="1">
          <mxGeometry relative="1" as="geometry" />
        </mxCell>
        <mxCell id="u0QW2ccfRetypEZ7X_PO-90" value="Coordenador de Controle de Dopagem" style="ellipse;whiteSpace=wrap;html=1;align=center;" parent="1" vertex="1">
          <mxGeometry x="190" y="310" width="147.5" height="70" as="geometry" />
        </mxCell>
        <mxCell id="u0QW2ccfRetypEZ7X_PO-91" style="edgeStyle=none;shape=connector;rounded=0;orthogonalLoop=1;jettySize=auto;html=1;entryX=0.3;entryY=0;entryDx=0;entryDy=0;entryPerimeter=0;strokeColor=default;align=center;verticalAlign=middle;fontFamily=Helvetica;fontSize=11;fontColor=default;labelBackgroundColor=default;startArrow=none;startFill=0;endArrow=none;" parent="1" source="u0QW2ccfRetypEZ7X_PO-87" target="u0QW2ccfRetypEZ7X_PO-86" edge="1">
          <mxGeometry relative="1" as="geometry" />
        </mxCell>
        <mxCell id="u0QW2ccfRetypEZ7X_PO-93" style="edgeStyle=none;shape=connector;rounded=0;orthogonalLoop=1;jettySize=auto;html=1;entryX=0.67;entryY=0.034;entryDx=0;entryDy=0;entryPerimeter=0;strokeColor=default;align=center;verticalAlign=middle;fontFamily=Helvetica;fontSize=11;fontColor=default;labelBackgroundColor=default;startArrow=none;startFill=0;endArrow=none;" parent="1" source="u0QW2ccfRetypEZ7X_PO-89" target="u0QW2ccfRetypEZ7X_PO-86" edge="1">
          <mxGeometry relative="1" as="geometry" />
        </mxCell>
        <mxCell id="u0QW2ccfRetypEZ7X_PO-95" value="&lt;span style=&quot;border-bottom: 1px dotted&quot;&gt;Id&lt;/span&gt;" style="ellipse;whiteSpace=wrap;html=1;align=center;fillColor=#fff2cc;strokeColor=#d6b656;" parent="1" vertex="1">
          <mxGeometry x="-80" y="340" width="60" height="30" as="geometry" />
        </mxCell>
        <mxCell id="u0QW2ccfRetypEZ7X_PO-96" style="edgeStyle=none;shape=connector;rounded=0;orthogonalLoop=1;jettySize=auto;html=1;entryX=0.008;entryY=0.084;entryDx=0;entryDy=0;entryPerimeter=0;strokeColor=default;align=center;verticalAlign=middle;fontFamily=Helvetica;fontSize=11;fontColor=default;labelBackgroundColor=default;startArrow=none;startFill=0;endArrow=none;" parent="1" source="u0QW2ccfRetypEZ7X_PO-95" target="u0QW2ccfRetypEZ7X_PO-86" edge="1">
          <mxGeometry relative="1" as="geometry" />
        </mxCell>
        <mxCell id="u0QW2ccfRetypEZ7X_PO-141" value="" style="edgeStyle=none;shape=connector;rounded=0;orthogonalLoop=1;jettySize=auto;html=1;strokeColor=default;align=center;verticalAlign=middle;fontFamily=Helvetica;fontSize=11;fontColor=default;labelBackgroundColor=default;startArrow=none;startFill=0;endArrow=none;" parent="1" source="u0QW2ccfRetypEZ7X_PO-97" target="u0QW2ccfRetypEZ7X_PO-140" edge="1">
          <mxGeometry relative="1" as="geometry" />
        </mxCell>
        <mxCell id="u0QW2ccfRetypEZ7X_PO-143" value="1" style="edgeLabel;html=1;align=center;verticalAlign=middle;resizable=0;points=[];fontFamily=Helvetica;fontSize=11;fontColor=default;labelBackgroundColor=default;" parent="u0QW2ccfRetypEZ7X_PO-141" vertex="1" connectable="0">
          <mxGeometry x="-0.5072" y="2" relative="1" as="geometry">
            <mxPoint x="8" as="offset" />
          </mxGeometry>
        </mxCell>
        <mxCell id="u0QW2ccfRetypEZ7X_PO-97" value="Representante do Atleta" style="whiteSpace=wrap;html=1;align=center;fillColor=#d5e8d4;strokeColor=#82b366;" parent="1" vertex="1">
          <mxGeometry x="17.5" y="-530" width="110" height="40" as="geometry" />
        </mxCell>
        <mxCell id="u0QW2ccfRetypEZ7X_PO-105" style="edgeStyle=none;shape=connector;rounded=0;orthogonalLoop=1;jettySize=auto;html=1;entryX=0;entryY=0;entryDx=0;entryDy=0;strokeColor=default;align=center;verticalAlign=middle;fontFamily=Helvetica;fontSize=11;fontColor=default;labelBackgroundColor=default;startArrow=none;startFill=0;endArrow=none;" parent="1" source="u0QW2ccfRetypEZ7X_PO-98" target="u0QW2ccfRetypEZ7X_PO-97" edge="1">
          <mxGeometry relative="1" as="geometry" />
        </mxCell>
        <mxCell id="u0QW2ccfRetypEZ7X_PO-98" value="&lt;span style=&quot;border-bottom: 1px dotted&quot;&gt;Id&lt;/span&gt;" style="ellipse;whiteSpace=wrap;html=1;align=center;fillColor=#fff2cc;strokeColor=#d6b656;" parent="1" vertex="1">
          <mxGeometry x="-60" y="-580" width="60" height="30" as="geometry" />
        </mxCell>
        <mxCell id="u0QW2ccfRetypEZ7X_PO-104" style="edgeStyle=none;shape=connector;rounded=0;orthogonalLoop=1;jettySize=auto;html=1;entryX=0.5;entryY=0;entryDx=0;entryDy=0;strokeColor=default;align=center;verticalAlign=middle;fontFamily=Helvetica;fontSize=11;fontColor=default;labelBackgroundColor=default;startArrow=none;startFill=0;endArrow=none;" parent="1" source="u0QW2ccfRetypEZ7X_PO-99" target="u0QW2ccfRetypEZ7X_PO-97" edge="1">
          <mxGeometry relative="1" as="geometry" />
        </mxCell>
        <mxCell id="u0QW2ccfRetypEZ7X_PO-99" value="Nome" style="ellipse;whiteSpace=wrap;html=1;align=center;" parent="1" vertex="1">
          <mxGeometry x="50" y="-610" width="80" height="30" as="geometry" />
        </mxCell>
        <mxCell id="u0QW2ccfRetypEZ7X_PO-100" style="edgeStyle=none;shape=connector;rounded=0;orthogonalLoop=1;jettySize=auto;html=1;entryX=0.5;entryY=0;entryDx=0;entryDy=0;strokeColor=default;align=center;verticalAlign=middle;fontFamily=Helvetica;fontSize=11;fontColor=default;labelBackgroundColor=default;startArrow=none;startFill=0;endArrow=none;" parent="1" source="u0QW2ccfRetypEZ7X_PO-101" target="u0QW2ccfRetypEZ7X_PO-99" edge="1">
          <mxGeometry relative="1" as="geometry" />
        </mxCell>
        <mxCell id="u0QW2ccfRetypEZ7X_PO-101" value="Nome" style="ellipse;whiteSpace=wrap;html=1;align=center;" parent="1" vertex="1">
          <mxGeometry x="15" y="-680" width="80" height="30" as="geometry" />
        </mxCell>
        <mxCell id="u0QW2ccfRetypEZ7X_PO-102" value="Sobrenome" style="ellipse;whiteSpace=wrap;html=1;align=center;" parent="1" vertex="1">
          <mxGeometry x="95" y="-665" width="80" height="30" as="geometry" />
        </mxCell>
        <mxCell id="u0QW2ccfRetypEZ7X_PO-103" style="edgeStyle=none;shape=connector;rounded=0;orthogonalLoop=1;jettySize=auto;html=1;entryX=0.67;entryY=-0.025;entryDx=0;entryDy=0;entryPerimeter=0;strokeColor=default;align=center;verticalAlign=middle;fontFamily=Helvetica;fontSize=11;fontColor=default;labelBackgroundColor=default;startArrow=none;startFill=0;endArrow=none;" parent="1" source="u0QW2ccfRetypEZ7X_PO-102" target="u0QW2ccfRetypEZ7X_PO-99" edge="1">
          <mxGeometry relative="1" as="geometry" />
        </mxCell>
        <mxCell id="u0QW2ccfRetypEZ7X_PO-108" style="edgeStyle=none;shape=connector;rounded=0;orthogonalLoop=1;jettySize=auto;html=1;entryX=1;entryY=0.5;entryDx=0;entryDy=0;strokeColor=default;align=center;verticalAlign=middle;fontFamily=Helvetica;fontSize=11;fontColor=default;labelBackgroundColor=default;startArrow=none;startFill=0;endArrow=none;" parent="1" source="u0QW2ccfRetypEZ7X_PO-107" target="u0QW2ccfRetypEZ7X_PO-1" edge="1">
          <mxGeometry relative="1" as="geometry" />
        </mxCell>
        <mxCell id="u0QW2ccfRetypEZ7X_PO-110" value="1" style="edgeLabel;html=1;align=center;verticalAlign=middle;resizable=0;points=[];fontFamily=Helvetica;fontSize=11;fontColor=default;labelBackgroundColor=default;" parent="u0QW2ccfRetypEZ7X_PO-108" vertex="1" connectable="0">
          <mxGeometry x="0.5207" y="2" relative="1" as="geometry">
            <mxPoint y="8" as="offset" />
          </mxGeometry>
        </mxCell>
        <mxCell id="u0QW2ccfRetypEZ7X_PO-109" style="edgeStyle=none;shape=connector;rounded=0;orthogonalLoop=1;jettySize=auto;html=1;strokeColor=default;align=center;verticalAlign=middle;fontFamily=Helvetica;fontSize=11;fontColor=default;labelBackgroundColor=default;startArrow=none;startFill=0;endArrow=none;entryX=0;entryY=0.5;entryDx=0;entryDy=0;" parent="1" source="u0QW2ccfRetypEZ7X_PO-107" target="u0QW2ccfRetypEZ7X_PO-47" edge="1">
          <mxGeometry relative="1" as="geometry">
            <mxPoint x="510.0000000000002" y="-150" as="targetPoint" />
          </mxGeometry>
        </mxCell>
        <mxCell id="u0QW2ccfRetypEZ7X_PO-111" value="N" style="edgeLabel;html=1;align=center;verticalAlign=middle;resizable=0;points=[];fontFamily=Helvetica;fontSize=11;fontColor=default;labelBackgroundColor=default;" parent="u0QW2ccfRetypEZ7X_PO-109" vertex="1" connectable="0">
          <mxGeometry x="0.4444" y="-2" relative="1" as="geometry">
            <mxPoint y="8" as="offset" />
          </mxGeometry>
        </mxCell>
        <mxCell id="u0QW2ccfRetypEZ7X_PO-107" value="Fornece" style="rhombus;whiteSpace=wrap;html=1;fillColor=#e1d5e7;strokeColor=#9673a6;" parent="1" vertex="1">
          <mxGeometry x="302.5" y="-190" width="80" height="80" as="geometry" />
        </mxCell>
        <mxCell id="u0QW2ccfRetypEZ7X_PO-155" style="edgeStyle=none;shape=connector;rounded=0;orthogonalLoop=1;jettySize=auto;html=1;strokeColor=default;align=center;verticalAlign=middle;fontFamily=Helvetica;fontSize=11;fontColor=default;labelBackgroundColor=default;startArrow=none;startFill=0;endArrow=none;" parent="1" source="u0QW2ccfRetypEZ7X_PO-112" target="u0QW2ccfRetypEZ7X_PO-151" edge="1">
          <mxGeometry relative="1" as="geometry" />
        </mxCell>
        <mxCell id="u0QW2ccfRetypEZ7X_PO-112" value="Volume" style="ellipse;whiteSpace=wrap;html=1;align=center;" parent="1" vertex="1">
          <mxGeometry x="595" y="-585" width="65" height="40" as="geometry" />
        </mxCell>
        <mxCell id="u0QW2ccfRetypEZ7X_PO-116" style="edgeStyle=none;shape=connector;rounded=0;orthogonalLoop=1;jettySize=auto;html=1;entryX=0;entryY=0.5;entryDx=0;entryDy=0;strokeColor=default;align=center;verticalAlign=middle;fontFamily=Helvetica;fontSize=11;fontColor=default;labelBackgroundColor=default;startArrow=none;startFill=0;endArrow=none;" parent="1" source="u0QW2ccfRetypEZ7X_PO-114" target="u0QW2ccfRetypEZ7X_PO-38" edge="1">
          <mxGeometry relative="1" as="geometry" />
        </mxCell>
        <mxCell id="u0QW2ccfRetypEZ7X_PO-119" value="1" style="edgeLabel;html=1;align=center;verticalAlign=middle;resizable=0;points=[];fontFamily=Helvetica;fontSize=11;fontColor=default;labelBackgroundColor=default;" parent="u0QW2ccfRetypEZ7X_PO-116" vertex="1" connectable="0">
          <mxGeometry x="0.7417" y="-1" relative="1" as="geometry">
            <mxPoint y="11" as="offset" />
          </mxGeometry>
        </mxCell>
        <mxCell id="u0QW2ccfRetypEZ7X_PO-114" value="Responsável&lt;div&gt;por&lt;/div&gt;" style="rhombus;whiteSpace=wrap;html=1;fillColor=#e1d5e7;strokeColor=#9673a6;" parent="1" vertex="1">
          <mxGeometry x="517.5" y="10" width="120" height="85" as="geometry" />
        </mxCell>
        <mxCell id="u0QW2ccfRetypEZ7X_PO-120" value="Equipamento" style="whiteSpace=wrap;html=1;align=center;fillColor=#d5e8d4;strokeColor=#82b366;" parent="1" vertex="1">
          <mxGeometry x="950" y="-170" width="100" height="40" as="geometry" />
        </mxCell>
        <mxCell id="u0QW2ccfRetypEZ7X_PO-121" value="&lt;span style=&quot;border-bottom: 1px dotted&quot;&gt;Id&lt;/span&gt;" style="ellipse;whiteSpace=wrap;html=1;align=center;fillColor=#fff2cc;strokeColor=#d6b656;" parent="1" vertex="1">
          <mxGeometry x="890" y="-220" width="60" height="30" as="geometry" />
        </mxCell>
        <mxCell id="u0QW2ccfRetypEZ7X_PO-122" style="edgeStyle=none;shape=connector;rounded=0;orthogonalLoop=1;jettySize=auto;html=1;entryX=0.131;entryY=0.017;entryDx=0;entryDy=0;entryPerimeter=0;strokeColor=default;align=center;verticalAlign=middle;fontFamily=Helvetica;fontSize=11;fontColor=default;labelBackgroundColor=default;startArrow=none;startFill=0;endArrow=none;" parent="1" source="u0QW2ccfRetypEZ7X_PO-121" target="u0QW2ccfRetypEZ7X_PO-120" edge="1">
          <mxGeometry relative="1" as="geometry" />
        </mxCell>
        <mxCell id="u0QW2ccfRetypEZ7X_PO-123" value="Fabricante" style="ellipse;whiteSpace=wrap;html=1;align=center;" parent="1" vertex="1">
          <mxGeometry x="910" y="-262.5" width="90" height="30" as="geometry" />
        </mxCell>
        <mxCell id="u0QW2ccfRetypEZ7X_PO-124" style="edgeStyle=none;shape=connector;rounded=0;orthogonalLoop=1;jettySize=auto;html=1;entryX=0.189;entryY=-0.015;entryDx=0;entryDy=0;entryPerimeter=0;strokeColor=default;align=center;verticalAlign=middle;fontFamily=Helvetica;fontSize=11;fontColor=default;labelBackgroundColor=default;startArrow=none;startFill=0;endArrow=none;" parent="1" source="u0QW2ccfRetypEZ7X_PO-123" target="u0QW2ccfRetypEZ7X_PO-120" edge="1">
          <mxGeometry relative="1" as="geometry" />
        </mxCell>
        <mxCell id="u0QW2ccfRetypEZ7X_PO-125" value="Modelo" style="ellipse;whiteSpace=wrap;html=1;align=center;" parent="1" vertex="1">
          <mxGeometry x="980" y="-232.5" width="90" height="30" as="geometry" />
        </mxCell>
        <mxCell id="u0QW2ccfRetypEZ7X_PO-126" style="edgeStyle=none;shape=connector;rounded=0;orthogonalLoop=1;jettySize=auto;html=1;entryX=0.451;entryY=-0.026;entryDx=0;entryDy=0;entryPerimeter=0;strokeColor=default;align=center;verticalAlign=middle;fontFamily=Helvetica;fontSize=11;fontColor=default;labelBackgroundColor=default;startArrow=none;startFill=0;endArrow=none;" parent="1" source="u0QW2ccfRetypEZ7X_PO-125" target="u0QW2ccfRetypEZ7X_PO-120" edge="1">
          <mxGeometry relative="1" as="geometry" />
        </mxCell>
        <mxCell id="u0QW2ccfRetypEZ7X_PO-129" style="edgeStyle=none;shape=connector;rounded=0;orthogonalLoop=1;jettySize=auto;html=1;entryX=0;entryY=0.5;entryDx=0;entryDy=0;strokeColor=default;align=center;verticalAlign=middle;fontFamily=Helvetica;fontSize=11;fontColor=default;labelBackgroundColor=default;startArrow=none;startFill=0;endArrow=none;" parent="1" source="u0QW2ccfRetypEZ7X_PO-127" target="u0QW2ccfRetypEZ7X_PO-120" edge="1">
          <mxGeometry relative="1" as="geometry" />
        </mxCell>
        <mxCell id="u0QW2ccfRetypEZ7X_PO-130" value="1" style="edgeLabel;html=1;align=center;verticalAlign=middle;resizable=0;points=[];fontFamily=Helvetica;fontSize=11;fontColor=default;labelBackgroundColor=default;" parent="u0QW2ccfRetypEZ7X_PO-129" vertex="1" connectable="0">
          <mxGeometry x="0.5978" relative="1" as="geometry">
            <mxPoint y="-9" as="offset" />
          </mxGeometry>
        </mxCell>
        <mxCell id="u0QW2ccfRetypEZ7X_PO-127" value="Utilizou" style="rhombus;whiteSpace=wrap;html=1;fillColor=#e1d5e7;strokeColor=#9673a6;" parent="1" vertex="1">
          <mxGeometry x="717.5" y="-190" width="80" height="80" as="geometry" />
        </mxCell>
        <mxCell id="u0QW2ccfRetypEZ7X_PO-134" style="edgeStyle=none;shape=connector;rounded=0;orthogonalLoop=1;jettySize=auto;html=1;entryX=0.5;entryY=0;entryDx=0;entryDy=0;strokeColor=default;align=center;verticalAlign=middle;fontFamily=Helvetica;fontSize=11;fontColor=default;labelBackgroundColor=default;startArrow=none;startFill=0;endArrow=none;" parent="1" source="u0QW2ccfRetypEZ7X_PO-132" target="u0QW2ccfRetypEZ7X_PO-73" edge="1">
          <mxGeometry relative="1" as="geometry" />
        </mxCell>
        <mxCell id="u0QW2ccfRetypEZ7X_PO-136" value="1" style="edgeLabel;html=1;align=center;verticalAlign=middle;resizable=0;points=[];fontFamily=Helvetica;fontSize=11;fontColor=default;labelBackgroundColor=default;" parent="u0QW2ccfRetypEZ7X_PO-134" vertex="1" connectable="0">
          <mxGeometry x="0.418" relative="1" as="geometry">
            <mxPoint x="8" as="offset" />
          </mxGeometry>
        </mxCell>
        <mxCell id="u0QW2ccfRetypEZ7X_PO-132" value="Submetido a" style="rhombus;whiteSpace=wrap;html=1;fillColor=#e1d5e7;strokeColor=#9673a6;" parent="1" vertex="1">
          <mxGeometry x="25" y="-70" width="90" height="80" as="geometry" />
        </mxCell>
        <mxCell id="u0QW2ccfRetypEZ7X_PO-139" style="edgeStyle=none;shape=connector;rounded=0;orthogonalLoop=1;jettySize=auto;html=1;entryX=0.5;entryY=0;entryDx=0;entryDy=0;strokeColor=default;align=center;verticalAlign=middle;fontFamily=Helvetica;fontSize=11;fontColor=default;labelBackgroundColor=default;startArrow=none;startFill=0;endArrow=none;" parent="1" source="u0QW2ccfRetypEZ7X_PO-137" target="u0QW2ccfRetypEZ7X_PO-86" edge="1">
          <mxGeometry relative="1" as="geometry" />
        </mxCell>
        <mxCell id="u0QW2ccfRetypEZ7X_PO-148" value="N" style="edgeLabel;html=1;align=center;verticalAlign=middle;resizable=0;points=[];fontFamily=Helvetica;fontSize=11;fontColor=default;labelBackgroundColor=default;" parent="u0QW2ccfRetypEZ7X_PO-139" vertex="1" connectable="0">
          <mxGeometry x="0.3861" relative="1" as="geometry">
            <mxPoint x="7" y="4" as="offset" />
          </mxGeometry>
        </mxCell>
        <mxCell id="u0QW2ccfRetypEZ7X_PO-137" value="Supervisionado&lt;div&gt;por&lt;/div&gt;" style="rhombus;whiteSpace=wrap;html=1;fillColor=#e1d5e7;strokeColor=#9673a6;" parent="1" vertex="1">
          <mxGeometry x="11.25" y="210" width="122.5" height="70" as="geometry" />
        </mxCell>
        <mxCell id="u0QW2ccfRetypEZ7X_PO-140" value="Representado&lt;div&gt;por&lt;/div&gt;" style="rhombus;whiteSpace=wrap;html=1;fillColor=#e1d5e7;strokeColor=#9673a6;" parent="1" vertex="1">
          <mxGeometry x="11.25" y="-415" width="125" height="70" as="geometry" />
        </mxCell>
        <mxCell id="u0QW2ccfRetypEZ7X_PO-142" style="edgeStyle=none;shape=connector;rounded=0;orthogonalLoop=1;jettySize=auto;html=1;entryX=0.698;entryY=0.059;entryDx=0;entryDy=0;entryPerimeter=0;strokeColor=default;align=center;verticalAlign=middle;fontFamily=Helvetica;fontSize=11;fontColor=default;labelBackgroundColor=default;startArrow=none;startFill=0;endArrow=none;" parent="1" source="u0QW2ccfRetypEZ7X_PO-140" target="u0QW2ccfRetypEZ7X_PO-1" edge="1">
          <mxGeometry relative="1" as="geometry" />
        </mxCell>
        <mxCell id="u0QW2ccfRetypEZ7X_PO-144" value="1" style="edgeLabel;html=1;align=center;verticalAlign=middle;resizable=0;points=[];fontFamily=Helvetica;fontSize=11;fontColor=default;labelBackgroundColor=default;" parent="u0QW2ccfRetypEZ7X_PO-142" vertex="1" connectable="0">
          <mxGeometry x="0.4645" y="-1" relative="1" as="geometry">
            <mxPoint x="8" as="offset" />
          </mxGeometry>
        </mxCell>
        <mxCell id="u0QW2ccfRetypEZ7X_PO-160" value="" style="edgeStyle=none;shape=connector;rounded=0;orthogonalLoop=1;jettySize=auto;html=1;strokeColor=default;align=center;verticalAlign=middle;fontFamily=Helvetica;fontSize=11;fontColor=default;labelBackgroundColor=default;startArrow=none;startFill=0;endArrow=none;" parent="1" source="u0QW2ccfRetypEZ7X_PO-151" target="u0QW2ccfRetypEZ7X_PO-159" edge="1">
          <mxGeometry relative="1" as="geometry" />
        </mxCell>
        <mxCell id="u0QW2ccfRetypEZ7X_PO-162" value="N" style="edgeLabel;html=1;align=center;verticalAlign=middle;resizable=0;points=[];fontFamily=Helvetica;fontSize=11;fontColor=default;labelBackgroundColor=default;" parent="u0QW2ccfRetypEZ7X_PO-160" vertex="1" connectable="0">
          <mxGeometry x="-0.1824" y="-1" relative="1" as="geometry">
            <mxPoint x="20" y="-4" as="offset" />
          </mxGeometry>
        </mxCell>
        <mxCell id="u0QW2ccfRetypEZ7X_PO-151" value="Tipo de Amostra" style="whiteSpace=wrap;html=1;align=center;fillColor=#d5e8d4;strokeColor=#82b366;" parent="1" vertex="1">
          <mxGeometry x="534" y="-490" width="100" height="40" as="geometry" />
        </mxCell>
        <mxCell id="u0QW2ccfRetypEZ7X_PO-154" style="edgeStyle=none;shape=connector;rounded=0;orthogonalLoop=1;jettySize=auto;html=1;strokeColor=default;align=center;verticalAlign=middle;fontFamily=Helvetica;fontSize=11;fontColor=default;labelBackgroundColor=default;startArrow=none;startFill=0;endArrow=none;" parent="1" source="u0QW2ccfRetypEZ7X_PO-152" target="u0QW2ccfRetypEZ7X_PO-151" edge="1">
          <mxGeometry relative="1" as="geometry" />
        </mxCell>
        <mxCell id="u0QW2ccfRetypEZ7X_PO-152" value="Nome do Tipo" style="ellipse;whiteSpace=wrap;html=1;align=center;" parent="1" vertex="1">
          <mxGeometry x="510" y="-645" width="92.5" height="45" as="geometry" />
        </mxCell>
        <mxCell id="u0QW2ccfRetypEZ7X_PO-153" style="edgeStyle=none;shape=connector;rounded=0;orthogonalLoop=1;jettySize=auto;html=1;entryX=0.098;entryY=0.007;entryDx=0;entryDy=0;entryPerimeter=0;strokeColor=default;align=center;verticalAlign=middle;fontFamily=Helvetica;fontSize=11;fontColor=default;labelBackgroundColor=default;startArrow=none;startFill=0;endArrow=none;" parent="1" source="u0QW2ccfRetypEZ7X_PO-52" target="u0QW2ccfRetypEZ7X_PO-151" edge="1">
          <mxGeometry relative="1" as="geometry" />
        </mxCell>
        <mxCell id="u0QW2ccfRetypEZ7X_PO-158" style="edgeStyle=none;shape=connector;rounded=0;orthogonalLoop=1;jettySize=auto;html=1;entryX=0;entryY=0.25;entryDx=0;entryDy=0;strokeColor=default;align=center;verticalAlign=middle;fontFamily=Helvetica;fontSize=11;fontColor=default;labelBackgroundColor=default;startArrow=none;startFill=0;endArrow=none;" parent="1" source="u0QW2ccfRetypEZ7X_PO-157" target="u0QW2ccfRetypEZ7X_PO-151" edge="1">
          <mxGeometry relative="1" as="geometry" />
        </mxCell>
        <mxCell id="u0QW2ccfRetypEZ7X_PO-157" value="&lt;span style=&quot;border-bottom: 1px dotted&quot;&gt;Id&lt;/span&gt;" style="ellipse;whiteSpace=wrap;html=1;align=center;fillColor=#fff2cc;strokeColor=#d6b656;" parent="1" vertex="1">
          <mxGeometry x="430" y="-525" width="60" height="30" as="geometry" />
        </mxCell>
        <mxCell id="u0QW2ccfRetypEZ7X_PO-159" value="Possui" style="rhombus;whiteSpace=wrap;html=1;fillColor=#d5e8d4;strokeColor=#82b366;" parent="1" vertex="1">
          <mxGeometry x="544" y="-390" width="80" height="80" as="geometry" />
        </mxCell>
        <mxCell id="u0QW2ccfRetypEZ7X_PO-161" style="edgeStyle=none;shape=connector;rounded=0;orthogonalLoop=1;jettySize=auto;html=1;entryX=0.578;entryY=0.046;entryDx=0;entryDy=0;entryPerimeter=0;strokeColor=default;align=center;verticalAlign=middle;fontFamily=Helvetica;fontSize=11;fontColor=default;labelBackgroundColor=default;startArrow=none;startFill=0;endArrow=none;" parent="1" source="u0QW2ccfRetypEZ7X_PO-159" target="u0QW2ccfRetypEZ7X_PO-47" edge="1">
          <mxGeometry relative="1" as="geometry" />
        </mxCell>
        <mxCell id="u0QW2ccfRetypEZ7X_PO-163" value="1" style="edgeLabel;html=1;align=center;verticalAlign=middle;resizable=0;points=[];fontFamily=Helvetica;fontSize=11;fontColor=default;labelBackgroundColor=default;" parent="u0QW2ccfRetypEZ7X_PO-161" vertex="1" connectable="0">
          <mxGeometry x="0.5862" y="3" relative="1" as="geometry">
            <mxPoint x="12" as="offset" />
          </mxGeometry>
        </mxCell>
        <mxCell id="gd6iNXjS2seEAY7GNlMb-3" style="edgeStyle=none;shape=connector;rounded=0;orthogonalLoop=1;jettySize=auto;html=1;entryX=0.75;entryY=0;entryDx=0;entryDy=0;strokeColor=default;align=center;verticalAlign=middle;fontFamily=Helvetica;fontSize=11;fontColor=default;labelBackgroundColor=default;startArrow=none;startFill=0;endArrow=none;" edge="1" parent="1" source="gd6iNXjS2seEAY7GNlMb-1" target="u0QW2ccfRetypEZ7X_PO-73">
          <mxGeometry relative="1" as="geometry" />
        </mxCell>
        <mxCell id="gd6iNXjS2seEAY7GNlMb-1" value="Status da&lt;div&gt;Competição&lt;/div&gt;" style="ellipse;whiteSpace=wrap;html=1;align=center;" vertex="1" parent="1">
          <mxGeometry x="83.75" y="5" width="102.5" height="37.5" as="geometry" />
        </mxCell>
      </root>
    </mxGraphModel>
  </diagram>
</mxfile>
